HIERARCHY
ROOT Hips
{
    OFFSET 0.000000 0.000000 0.000000
    CHANNELS 6 Xposition Yposition Zposition Zrotation Xrotation Yrotation
        JOINT Chest
        {
            OFFSET -0.000000 32.910728 -0.000000
            CHANNELS 3 Zrotation Xrotation Yrotation
            JOINT Neck
            {
                OFFSET -0.000000 24.872103 0.000000
                CHANNELS 3 Zrotation Xrotation Yrotation
                JOINT Head
                {
                    OFFSET -0.000000 10.694444 0.000000
                    CHANNELS 3 Zrotation Xrotation Yrotation
                    End Site
                    {
                        OFFSET -0.000000 16.527781 0.000000
                    }
                }
            }
            JOINT LeftCollar
            {
                OFFSET -0.000000 24.872103 0.000000
                CHANNELS 3 Zrotation Xrotation Yrotation
                JOINT LeftShoulder
                {
                    OFFSET 20.500000 -0.000000 0.000000
                    CHANNELS 3 Zrotation Xrotation Yrotation
                    JOINT LeftElbow
                    {
                        OFFSET 20.261999 0.000000 0.000000
                        CHANNELS 3 Zrotation Xrotation Yrotation
                        JOINT LeftWrist
                        {
                            OFFSET 25.372869 0.000000 0.000000
                            CHANNELS 3 Zrotation Xrotation Yrotation
                            End Site
                            {
                                OFFSET 0.000000 -14.583331 0.000000
                            }
                        }
                    }
                }
            }
            JOINT RightCollar
            {
                OFFSET -0.000000 24.872103 0.000000
                CHANNELS 3 Zrotation Xrotation Yrotation
                JOINT RightShoulder
                {
                    OFFSET -20.500000 0.000000 0.000000
                    CHANNELS 3 Zrotation Xrotation Yrotation
                    JOINT RightElbow
                    {
                        OFFSET -20.261999 0.000000 0.000000
                        CHANNELS 3 Zrotation Xrotation Yrotation
                        JOINT RightWrist
                        {
                            OFFSET -25.372869 0.000000 0.000000
                            CHANNELS 3 Zrotation Xrotation Yrotation
                            End Site
                            {
                                OFFSET -0.000000 -14.583331 0.000000
                            }
                        }
                    }
                }
            }
        }
    JOINT LeftHip
    {
        OFFSET 11.666668 0.000000 0.000000
        CHANNELS 3 Zrotation Xrotation Yrotation
        JOINT LeftKnee
        {
            OFFSET -0.000000 -37.459236 0.000000
            CHANNELS 3 Zrotation Xrotation Yrotation
            JOINT LeftAnkle
            {
                OFFSET -0.000000 -38.972313 0.000000
                CHANNELS 3 Zrotation Xrotation Yrotation
                End Site
                {
                    OFFSET -0.000000 -4.861111 16.527781
                }
            }
        }
    }
    JOINT RightHip
    {
        OFFSET -11.666668 0.000000 0.000000
        CHANNELS 3 Zrotation Xrotation Yrotation
        JOINT RightKnee
        {
            OFFSET -0.000000 -37.459236 0.000000
            CHANNELS 3 Zrotation Xrotation Yrotation
            JOINT RightAnkle
            {
                OFFSET -0.000000 -38.972313 0.000000
                CHANNELS 3 Zrotation Xrotation Yrotation
                End Site
                {
                    OFFSET -0.000000 -4.861111 16.527781
                }
            }
        }
    }
}
MOTION
Frames:    10
Frame Time:    0.010000
-76.324402    83.894524    -124.334427    4.839221    -5.989025    38.270344    4.851433    18.420963    -33.572880    -16.224968    1.449001    17.596079    -4.551571    0.507606    17.402683    -22.607676    3.315465    -15.812616    49.905083    6.703880    -129.786087    60.726471    -22.360071    -36.113045    105.580299    -3.535656    23.576460    27.333521    -4.315488    -17.921045    32.677116    29.574408    20.086384    -79.867088    -43.959007    53.489017    -162.631897    27.952271    -30.126959    -3.222581    8.435862    17.824841    4.728024    19.996672    5.205860    -9.782877    -7.541986    25.560110    5.341656    -33.067070    11.153845    3.215175    39.181160    -12.767783    12.006230    4.020453    10.897128    
-76.484253    83.962044    -124.083496    4.738657    -6.015158    38.804726    5.096705    18.548672    -33.467285    -15.892668    1.572821    17.294170    -4.706426    0.594850    17.090673    -22.848755    3.251158    -15.389260    50.392429    7.245512    -130.095749    60.626846    -21.449745    -34.871525    105.843384    -1.672686    25.968672    27.204111    -4.375285    -18.263014    32.666550    30.363024    19.530165    -75.461266    -43.676193    56.818134    -162.089279    26.593578    -30.112162    -2.844823    8.552843    17.876921    4.890319    19.720371    4.754303    -9.993158    -7.388179    25.351524    4.462966    -33.336472    10.664786    3.477855    40.897846    -13.505998    10.467101    2.792226    10.270372    
-76.635757    84.015785    -123.827339    4.651756    -6.004736    39.357349    5.290728    18.620569    -33.337666    -15.515059    1.711460    16.946461    -4.850885    0.695158    16.734148    -23.032495    3.186886    -15.026032    50.726837    7.965136    -130.301468    60.288109    -20.560064    -33.843830    106.010429    0.262681    28.333595    27.068087    -4.423348    -18.590506    32.652336    31.183767    19.066538    -71.140373    -43.113644    59.945618    -161.420853    25.329727    -30.059271    -2.475340    8.637005    17.902306    5.012308    19.469975    4.368399    -10.165605    -7.226848    25.092100    3.502762    -33.558910    10.187490    3.731459    42.520271    -14.166244    9.028551    1.731341    9.676690    
-76.779510    84.054245    -123.565315    4.581092    -5.959739    39.919487    5.425057    18.640944    -33.185627    -15.099678    1.855373    16.559881    -4.972601    0.813287    16.340561    -23.159834    3.120375    -14.714480    50.902336    8.879635    -130.397552    59.709484    -19.707420    -33.038940    106.062271    2.176979    30.637957    26.938465    -4.477494    -18.881096    32.646023    32.010036    18.680656    -66.982277    -42.310123    62.800438    -160.593124    24.135954    -29.954090    -2.113894    8.686505    17.913708    5.095048    19.259632    4.023324    -10.306907    -7.071290    24.802822    2.469072    -33.725971    9.724180    3.976444    44.036800    -14.716003    7.701811    0.817649    9.119672    
-76.916214    84.076630    -123.296829    4.527902    -5.882317    40.481632    5.496781    18.617355    -33.010525    -14.660953    1.991005    16.140005    -5.056671    0.953460    15.916952    -23.235720    3.053359    -14.439967    50.918381    9.982488    -130.377670    58.891819    -18.903517    -32.457386    105.996025    4.001617    32.863380    26.833805    -4.527838    -19.112875    32.649719    32.774288    18.338793    -62.957001    -41.277462    65.438210    -159.654221    23.098764    -29.738214    -1.763615    8.701988    17.915663    5.143120    19.096478    3.704483    -10.427109    -6.931074    24.503613    1.373692    -33.830925    9.274456    4.206932    45.437634    -15.135301    6.492475    0.032470    8.596678    
-77.046806    84.082863    -123.021172    4.492263    -5.774863    41.033932    5.507596    18.559462    -32.809990    -14.216042    2.108503    15.691741    -5.094088    1.109986    15.469439    -23.267632    2.993778    -14.184532    50.784149    11.241735    -130.235809    57.845482    -18.148935    -32.079155    105.810341    5.672034    35.002529    26.767162    -4.567557    -19.267395    32.666336    33.417858    18.026045    -59.034668    -40.033665    67.895096    -158.632660    22.198505    -29.369999    -1.429687    8.686810    17.905834    5.162636    18.979473    3.407025    -10.536305    -6.809251    24.213474    0.231505    -33.868568    8.837220    4.412644    46.713226    -15.421834    5.401157    -0.642422    8.105311    
-77.172340    84.073593    -122.737633    4.472832    -5.639739    41.566166    5.462116    18.476500    -32.580067    -13.782958    2.202919    15.220841    -5.079919    1.269044    15.002418    -23.270441    2.929991    -13.931890    50.534389    12.609646    -129.993637    56.598522    -17.455021    -31.825617    105.506050    7.124543    37.040096    26.744576    -4.601593    -19.332611    32.695248    33.907455    17.733021    -55.193893    -38.590786    70.186775    -157.561356    21.390636    -28.828291    -1.116885    8.645223    17.879433    5.159255    18.904583    3.129232    -10.642496    -6.706845    23.950294    -0.939935    -33.835457    8.411981    4.579832    47.852539    -15.592040    4.422968    -1.222701    7.648156    
-77.294037    84.050064    -122.445251    4.467463    -5.480020    42.068035    5.366493    18.376797    -32.315605    -13.376540    2.274172    14.732902    -5.015708    1.413096    14.519735    -23.253853    2.876025    -13.669950    50.204208    14.028165    -129.654343    55.207569    -16.760168    -31.645828    105.055962    8.310461    39.037109    26.765898    -4.645350    -19.302992    32.731998    34.239742    17.451202    -51.425045    -36.956158    72.309464    -156.489044    20.631836    -28.110130    -0.828401    8.582092    17.830286    5.137870    18.868227    2.872258    -10.752768    -6.625028    23.727379    -2.120705    -33.729412    7.998007    4.691648    48.843712    -15.672341    3.550923    -1.721039    7.228722    
-77.413322    84.013840    -122.142838    4.473059    -5.299123    42.529079    5.227154    18.267202    -32.011108    -13.007664    2.318764    14.232771    -4.903368    1.534448    14.025876    -23.231737    2.820869    -13.390614    49.853840    15.440076    -129.258072    53.723412    -16.074963    -31.430494    104.499626    9.277761    41.022938    26.852274    -4.645767    -19.176779    32.736172    34.373848    17.183348    -47.648300    -35.084698    74.333710    -155.555084    19.975624    -27.198975    -0.565566    8.501794    17.755342    5.103365    18.868177    2.635115    -10.873135    -6.566559    23.554794    -3.288672    -33.551056    7.592135    4.725640    49.676712    -15.684408    2.781789    -2.146825    6.845445    
-77.531792    83.966568    -121.829010    4.485599    -5.100148    42.939320    5.050480    18.151878    -31.660494    -12.684529    2.324771    13.723478    -4.740864    1.643753    13.525440    -23.215340    2.752750    -13.088989    49.532215    16.814737    -128.848373    52.202141    -15.380596    -31.112415    103.843071    10.050265    43.034042    26.992512    -4.631296    -18.964823    32.691677    34.397831    16.981867    -43.981598    -33.069706    76.091835    -154.711426    19.239927    -26.138636    -0.328915    8.407572    17.655432    5.062488    18.901525    2.419176    -11.010240    -6.533108    23.435616    -4.420866    -33.304180    7.189685    4.656955    50.343510    -15.640413    2.117996    -2.503725    6.488311    
